<svg width="12" height="12" viewBox="0 0 12 12" fill="none" xmlns="http://www.w3.org/2000/svg">
<g clip-path="url(#clip0_1_6127)">
<path d="M10.9886 3.30047H8.87497V0.576328C8.87497 0.258516 8.61645 0 8.29864 0H3.70114C3.3831 0 3.12411 0.258516 3.12411 0.576328V3.3007H1.01122C0.655674 3.3007 0.366455 3.58992 0.366455 3.94547V9.80648C0.366455 9.91008 0.450361 9.99422 0.554189 9.99422H4.787C4.88731 10.1522 4.99396 10.3076 5.102 10.459C4.53364 10.597 4.19192 10.8619 4.19192 11.1799C4.19192 11.7188 5.10153 12.0007 5.99989 12.0007C6.89825 12.0007 7.80786 11.7188 7.80786 11.1799C7.80786 10.8581 7.47575 10.5984 6.90505 10.4604C7.01356 10.3088 7.1202 10.1531 7.22028 9.99422H11.4456C11.5492 9.99422 11.6333 9.91031 11.6333 9.80648V3.94523C11.6333 3.58992 11.3441 3.30047 10.9886 3.30047ZM0.741689 3.94523C0.741689 3.79664 0.862627 3.67594 1.01099 3.67594H3.12411V9.61875H0.741689V3.94523ZM6.96083 9.70102C6.95731 9.70641 6.9538 9.7118 6.95075 9.71742C6.74544 10.0528 6.50075 10.3812 6.27271 10.687C6.21856 10.7597 6.1656 10.8307 6.11427 10.9005C6.08591 10.9392 6.05005 10.9573 6.00294 10.9573C5.95489 10.957 5.91786 10.938 5.88974 10.8996C5.83114 10.819 5.77021 10.7367 5.70856 10.6533C5.4845 10.35 5.25224 10.0352 5.05606 9.71859C5.05231 9.7118 5.04833 9.70523 5.04388 9.69891C4.5606 8.91164 4.30747 8.11242 4.9738 7.44656C5.25716 7.1632 5.62935 7.02164 6.00153 7.02164C6.37372 7.02164 6.74591 7.1632 7.02903 7.44656C7.68997 8.10727 7.4338 8.92266 6.96083 9.70102ZM7.43263 11.1797C7.43263 11.3309 6.92685 11.6252 5.99989 11.6252C5.07294 11.6252 4.56716 11.3309 4.56716 11.1797C4.56716 11.0716 4.83622 10.8848 5.34364 10.7911C5.36474 10.8197 5.38583 10.8483 5.40669 10.8764C5.46786 10.9594 5.5281 11.0407 5.58669 11.1213C5.68606 11.2568 5.83302 11.3318 6.00177 11.333C6.17005 11.333 6.31747 11.2582 6.41661 11.123C6.46724 11.0541 6.51997 10.9835 6.57364 10.9116C6.60294 10.8722 6.63247 10.8326 6.66224 10.7925C7.16567 10.8865 7.43263 11.0723 7.43263 11.1797ZM7.29458 7.18102C6.58161 6.46805 5.42145 6.46805 4.70849 7.18102C4.19005 7.69898 4.06185 8.34164 4.32716 9.09094C4.38974 9.26766 4.47153 9.44414 4.56552 9.61875H3.49958V0.576328C3.49958 0.465469 3.59005 0.375469 3.70114 0.375469H8.29864C8.4095 0.375469 8.4995 0.465703 8.4995 0.576328V9.61875H7.43942C7.52567 9.45656 7.60161 9.29227 7.66185 9.12633C7.94052 8.35781 7.817 7.7032 7.29458 7.18102ZM11.2581 9.61875H8.87497V3.67594H10.9886C11.1372 3.67594 11.2579 3.79688 11.2579 3.94523V9.61875H11.2581ZM5.99989 7.21172C5.3788 7.21172 4.87349 7.71703 4.87349 8.33813C4.87349 8.95922 5.3788 9.46453 5.99989 9.46453C6.62099 9.46453 7.1263 8.95922 7.1263 8.33813C7.1263 7.71703 6.62099 7.21172 5.99989 7.21172ZM5.99989 9.0893C5.58575 9.0893 5.24872 8.75227 5.24872 8.33813C5.24872 7.92398 5.58575 7.58695 5.99989 7.58695C6.41403 7.58695 6.75106 7.92398 6.75106 8.33813C6.75106 8.75227 6.41403 9.0893 5.99989 9.0893ZM4.86903 1.10742H4.26505C4.097 1.10742 3.96036 1.24406 3.96036 1.41211V2.01609C3.96036 2.18414 4.097 2.32078 4.26505 2.32078H4.86903C5.03708 2.32078 5.17372 2.18414 5.17372 2.01609V1.41211C5.17372 1.24406 5.03708 1.10742 4.86903 1.10742ZM4.79849 1.94531H4.33606V1.48289H4.79849V1.94531ZM6.30153 1.10742H5.69755C5.5295 1.10742 5.39286 1.24406 5.39286 1.41211V2.01609C5.39286 2.18414 5.5295 2.32078 5.69755 2.32078H6.30153C6.46958 2.32078 6.60622 2.18414 6.60622 2.01609V1.41211C6.60622 1.24406 6.46958 1.10742 6.30153 1.10742ZM6.23075 1.94531H5.76833V1.48289H6.23075V1.94531ZM7.13005 2.32055H7.7345C7.90255 2.32055 8.03919 2.18391 8.03919 2.01586V1.41211C8.03919 1.24406 7.90255 1.10742 7.7345 1.10742H7.13005C6.962 1.10742 6.82536 1.24406 6.82536 1.41211V2.01609C6.82536 2.18391 6.962 2.32055 7.13005 2.32055ZM7.20083 1.48289H7.66395V1.94531H7.20083V1.48289ZM4.86903 2.64352H4.26505C4.097 2.64352 3.96036 2.78016 3.96036 2.9482V3.55266C3.96036 3.7207 4.097 3.85734 4.26505 3.85734H4.86903C5.03708 3.85734 5.17372 3.7207 5.17372 3.55266V2.9482C5.17372 2.78016 5.03708 2.64352 4.86903 2.64352ZM4.79849 3.48187H4.33606V3.01875H4.79849V3.48187ZM6.30153 2.64352H5.69755C5.5295 2.64352 5.39286 2.78016 5.39286 2.9482V3.55266C5.39286 3.7207 5.5295 3.85734 5.69755 3.85734H6.30153C6.46958 3.85734 6.60622 3.7207 6.60622 3.55266V2.9482C6.60622 2.78016 6.46958 2.64352 6.30153 2.64352ZM6.23075 3.48187H5.76833V3.01875H6.23075V3.48187ZM7.13005 3.85734H7.7345C7.90255 3.85734 8.03919 3.7207 8.03919 3.55266V2.9482C8.03919 2.78016 7.90255 2.64352 7.7345 2.64352H7.13005C6.962 2.64352 6.82536 2.78016 6.82536 2.9482V3.55266C6.82536 3.7207 6.962 3.85734 7.13005 3.85734ZM7.20083 3.01875H7.66395V3.48187H7.20083V3.01875ZM4.86903 4.18008H4.26505C4.097 4.18008 3.96036 4.31672 3.96036 4.48477V5.08875C3.96036 5.2568 4.097 5.39344 4.26505 5.39344H4.86903C5.03708 5.39344 5.17372 5.2568 5.17372 5.08875V4.48477C5.17372 4.31672 5.03708 4.18008 4.86903 4.18008ZM4.79849 5.01797H4.33606V4.55555H4.79849V5.01797ZM6.30153 4.18008H5.69755C5.5295 4.18008 5.39286 4.31672 5.39286 4.48477V5.08875C5.39286 5.2568 5.5295 5.39344 5.69755 5.39344H6.30153C6.46958 5.39344 6.60622 5.2568 6.60622 5.08875V4.48477C6.60622 4.31672 6.46958 4.18008 6.30153 4.18008ZM6.23075 5.01797H5.76833V4.55555H6.23075V5.01797ZM8.03919 5.08875V4.48477C8.03919 4.31672 7.90255 4.18008 7.7345 4.18008H7.13005C6.962 4.18008 6.82536 4.31672 6.82536 4.48477V5.08875C6.82536 5.2568 6.962 5.39344 7.13005 5.39344H7.7345C7.90255 5.39344 8.03919 5.2568 8.03919 5.08875ZM7.66372 5.01797H7.2006V4.55555H7.66372V5.01797ZM10.3689 4.32844H9.76442C9.59638 4.32844 9.45974 4.46508 9.45974 4.63312V5.23711C9.45974 5.40516 9.59638 5.5418 9.76442 5.5418H10.3689C10.5369 5.5418 10.6736 5.40516 10.6736 5.23711V4.63312C10.6733 4.46508 10.5367 4.32844 10.3689 4.32844ZM10.2981 5.16609H9.83497V4.70367H10.2981V5.16609ZM2.23489 4.32844H1.63091C1.46286 4.32844 1.32622 4.46508 1.32622 4.63312V5.23711C1.32622 5.40516 1.46286 5.5418 1.63091 5.5418H2.23489C2.40294 5.5418 2.53958 5.40516 2.53958 5.23711V4.63312C2.53958 4.46508 2.40294 4.32844 2.23489 4.32844ZM2.16411 5.16609H1.70169V4.70367H2.16411V5.16609Z" fill="black"/>
</g>
<defs>
<clipPath id="clip0_1_6127">
<rect width="12" height="12" fill="white"/>
</clipPath>
</defs>
</svg>
