<svg width="20" height="20" viewBox="0 0 20 20" fill="none" xmlns="http://www.w3.org/2000/svg">
<path d="M10.0003 1.6665C14.6027 1.6665 18.3337 5.39746 18.3337 9.99984C18.3337 14.6022 14.6027 18.3332 10.0003 18.3332C5.39795 18.3332 1.66699 14.6022 1.66699 9.99984C1.66699 5.39746 5.39795 1.6665 10.0003 1.6665ZM12.9422 7.0579L12.8722 6.99738C12.6547 6.836 12.3562 6.83401 12.1367 6.9914L12.0584 7.0579L10.0003 9.11567L7.94227 7.0579L7.87217 6.99738C7.65468 6.836 7.35617 6.83401 7.13667 6.9914L7.05838 7.0579L6.99787 7.128C6.83649 7.34549 6.8345 7.644 6.99189 7.86349L7.05838 7.94178L9.11616 9.99984L7.05838 12.0579L6.99787 12.128C6.83649 12.3455 6.8345 12.644 6.99189 12.8635L7.05838 12.9418L7.12848 13.0023C7.34598 13.1637 7.64448 13.1657 7.86398 13.0083L7.94227 12.9418L10.0003 10.884L12.0584 12.9418L12.1285 13.0023C12.346 13.1637 12.6445 13.1657 12.864 13.0083L12.9422 12.9418L13.0027 12.8717C13.1642 12.6542 13.1662 12.3557 13.0087 12.1362L12.9422 12.0579L10.8845 9.99984L12.9422 7.94178L13.0027 7.87168C13.1642 7.65419 13.1662 7.35568 13.0087 7.13619L12.9422 7.0579Z" fill="#C61E1E"/>
</svg>
