<svg width="12" height="12" viewBox="0 0 12 12" fill="none" xmlns="http://www.w3.org/2000/svg">
<path d="M11.4499 10.9065H0.545659C0.401023 10.9065 0.262311 10.9639 0.160038 11.0662C0.0577649 11.1685 0.000308517 11.3072 0.000308517 11.4518C0.000308517 11.5965 0.0577649 11.7352 0.160038 11.8375C0.262311 11.9397 0.401023 11.9972 0.545659 11.9972H11.4496C11.5942 11.9972 11.733 11.9398 11.8353 11.8375C11.9376 11.7353 11.995 11.5966 11.9951 11.452C11.9951 11.3073 11.9377 11.1686 11.8354 11.0663C11.7332 10.964 11.5945 10.9065 11.4499 10.9065ZM1.22709 9.48873C1.08242 9.48873 0.943677 9.5462 0.84138 9.6485C0.739083 9.75079 0.681613 9.88954 0.681613 10.0342C0.681613 10.1789 0.739083 10.3176 0.84138 10.4199C0.943677 10.5222 1.08242 10.5797 1.22709 10.5797H10.7682C10.9128 10.5797 11.0516 10.5222 11.1539 10.4199C11.2562 10.3176 11.3136 10.1789 11.3136 10.0342C11.3136 9.88954 11.2562 9.75079 11.1539 9.6485C11.0516 9.5462 10.9128 9.48873 10.7682 9.48873H10.6321V4.5816H10.7682C10.8404 4.5816 10.9097 4.5529 10.9608 4.50181C11.0119 4.45072 11.0406 4.38143 11.0406 4.30918C11.0406 4.23693 11.0119 4.16764 10.9608 4.11655C10.9097 4.06546 10.8404 4.03676 10.7682 4.03676H1.22709C1.15484 4.03676 1.08555 4.06546 1.03446 4.11655C0.983373 4.16764 0.954671 4.23693 0.954671 4.30918C0.954671 4.38143 0.983373 4.45072 1.03446 4.50181C1.08555 4.5529 1.15484 4.5816 1.22709 4.5816H1.36343V9.48847L1.22709 9.48873ZM9.54138 4.5816V9.48847H7.90584V4.5816H9.54138ZM6.81514 4.5816V9.48847H5.1796V4.5816H6.81514ZM2.45362 4.5816H4.08916V9.48847H2.45362V4.5816ZM0.545659 3.54656H11.455C11.5843 3.54702 11.7096 3.50146 11.8085 3.41802C11.9074 3.33458 11.9733 3.21871 11.9946 3.0911C12.0159 2.9635 11.9911 2.83249 11.9246 2.72149C11.8582 2.61049 11.7544 2.52675 11.6319 2.48522L6.22179 0.0508031C6.15145 0.0192449 6.07523 0.00292969 5.99814 0.00292969C5.92104 0.00292969 5.84482 0.0192449 5.77448 0.0508031L0.322004 2.50411C0.208131 2.55519 0.115234 2.6438 0.0588346 2.75513C0.00243503 2.86647 -0.0140516 2.99378 0.0121292 3.11581C0.0383099 3.23784 0.105572 3.34719 0.202679 3.42559C0.299785 3.50398 0.420854 3.54669 0.545659 3.54656Z" fill="black"/>
</svg>
