<svg width="12" height="8" viewBox="0 0 12 8" fill="none" xmlns="http://www.w3.org/2000/svg">
<path d="M6.11736 7.65567H2.02022C1.48442 7.65567 0.970573 7.44283 0.591709 7.06397C0.212844 6.6851 0 6.17125 0 5.63545C0 5.09966 0.212844 4.58581 0.591709 4.20694C0.970573 3.82808 1.48442 3.61523 2.02022 3.61523H6.11736C6.16982 3.61523 6.22013 3.63607 6.25723 3.67317C6.29432 3.71026 6.31516 3.76058 6.31516 3.81304C6.31516 3.8655 6.29432 3.91581 6.25723 3.9529C6.22013 3.99 6.16982 4.01084 6.11736 4.01084H2.02022C1.58934 4.01084 1.17612 4.182 0.871443 4.48668C0.566769 4.79135 0.395604 5.20458 0.395604 5.63545C0.395604 6.06633 0.566769 6.47956 0.871443 6.78423C1.17612 7.08891 1.58934 7.26007 2.02022 7.26007H6.11736C6.16982 7.26007 6.22013 7.28091 6.25723 7.318C6.29432 7.3551 6.31516 7.40541 6.31516 7.45787C6.31516 7.51033 6.29432 7.56064 6.25723 7.59774C6.22013 7.63483 6.16982 7.65567 6.11736 7.65567Z" fill="black"/>
<path d="M2.35918 5.90866C2.30672 5.90866 2.25641 5.88783 2.21931 5.85073C2.18222 5.81364 2.16138 5.76332 2.16138 5.71086V4.81548C2.16138 4.76302 2.18222 4.71271 2.21931 4.67561C2.25641 4.63852 2.30672 4.61768 2.35918 4.61768C2.41164 4.61768 2.46195 4.63852 2.49905 4.67561C2.53614 4.71271 2.55698 4.76302 2.55698 4.81548V5.70559C2.55769 5.732 2.55309 5.75829 2.54347 5.7829C2.53384 5.80752 2.51938 5.82995 2.50094 5.84888C2.48251 5.86781 2.46046 5.88285 2.43611 5.89312C2.41176 5.90339 2.3856 5.90867 2.35918 5.90866Z" fill="black"/>
<path d="M2.35901 5.90866C2.31019 5.91316 2.26143 5.89936 2.2222 5.86994C2.18298 5.84053 2.15607 5.79759 2.14671 5.74946C2.13734 5.70133 2.14619 5.65144 2.17153 5.60946C2.19687 5.56749 2.2369 5.53642 2.28385 5.52228L3.10671 5.18338C3.13081 5.17273 3.1568 5.167 3.18315 5.16654C3.20949 5.16607 3.23567 5.17087 3.26014 5.18066C3.2846 5.19045 3.30687 5.20502 3.32562 5.22354C3.34437 5.24205 3.35924 5.26412 3.36934 5.28846C3.37945 5.3128 3.38459 5.33891 3.38446 5.36526C3.38433 5.39162 3.37894 5.41768 3.3686 5.44192C3.35826 5.46615 3.34318 5.48808 3.32425 5.50641C3.30532 5.52474 3.28291 5.53911 3.25835 5.54866L2.4355 5.88888C2.41141 5.90006 2.3855 5.90676 2.35901 5.90866Z" fill="black"/>
<path d="M2.93139 6.58646C2.90244 6.58641 2.87385 6.58 2.84765 6.5677C2.82145 6.5554 2.79826 6.53749 2.77974 6.51525L2.20743 5.83217C2.18921 5.81248 2.17518 5.78929 2.1662 5.76401C2.15722 5.73873 2.15347 5.71189 2.15519 5.68511C2.15691 5.65834 2.16406 5.6322 2.17621 5.60827C2.18835 5.58435 2.20523 5.56315 2.22583 5.54595C2.24642 5.52876 2.2703 5.51594 2.29601 5.50826C2.32172 5.50059 2.34872 5.49823 2.37537 5.50132C2.40202 5.50441 2.42776 5.51288 2.45103 5.52624C2.4743 5.53959 2.49461 5.55754 2.51073 5.57898L3.08303 6.26074C3.10748 6.28958 3.12315 6.32482 3.12819 6.36228C3.13323 6.39975 3.12743 6.43787 3.11148 6.47214C3.09552 6.50642 3.07008 6.5354 3.03816 6.55566C3.00624 6.57592 2.96919 6.5866 2.93139 6.58646Z" fill="black"/>
<path d="M1.88038 6.65354C1.8426 6.65391 1.80551 6.64338 1.77357 6.62321C1.72947 6.59458 1.69848 6.54968 1.68736 6.4983C1.67625 6.44691 1.6859 6.39321 1.71423 6.34892L2.19291 5.59859C2.22124 5.55435 2.26598 5.52317 2.31729 5.51192C2.36861 5.50067 2.42229 5.51026 2.46653 5.53859C2.51077 5.56692 2.54195 5.61166 2.5532 5.66298C2.56445 5.71429 2.55486 5.76798 2.52653 5.81222L2.04785 6.56782C2.02925 6.59489 2.0042 6.6169 1.97496 6.63187C1.94572 6.64683 1.91322 6.65428 1.88038 6.65354Z" fill="black"/>
<path d="M2.35905 5.90866C2.34216 5.90833 2.32535 5.90612 2.30894 5.90207L1.44785 5.6713C1.42274 5.66455 1.3992 5.65292 1.37859 5.63707C1.35797 5.62122 1.34068 5.60146 1.3277 5.57893C1.31472 5.5564 1.30631 5.53153 1.30294 5.50575C1.29957 5.47997 1.30131 5.45377 1.30807 5.42866C1.31482 5.40356 1.32645 5.38002 1.3423 5.35941C1.35815 5.33879 1.3779 5.3215 1.40043 5.30852C1.42297 5.29554 1.44783 5.28713 1.47362 5.28376C1.4994 5.28039 1.52559 5.28213 1.5507 5.28888L2.41576 5.51306C2.46822 5.51988 2.51582 5.54726 2.54809 5.58918C2.58037 5.6311 2.59467 5.68412 2.58785 5.73658C2.58103 5.78904 2.55365 5.83664 2.51173 5.86891C2.46981 5.90119 2.41679 5.91548 2.36433 5.90866H2.35905ZM5.12301 5.90866C5.07055 5.90866 5.02024 5.88783 4.98314 5.85073C4.94605 5.81363 4.92521 5.76332 4.92521 5.71086V4.81548C4.92521 4.76302 4.94605 4.71271 4.98314 4.67561C5.02024 4.63852 5.07055 4.61768 5.12301 4.61768C5.17547 4.61768 5.22578 4.63852 5.26288 4.67561C5.29997 4.71271 5.32081 4.76302 5.32081 4.81548V5.70559C5.32152 5.732 5.31692 5.75829 5.3073 5.7829C5.29767 5.80752 5.28321 5.82995 5.26478 5.84888C5.24634 5.86781 5.22429 5.88285 5.19994 5.89312C5.1756 5.90339 5.14944 5.90867 5.12301 5.90866Z" fill="black"/>
<path d="M5.12304 5.90866C5.07484 5.91139 5.02731 5.8964 4.9894 5.86651C4.95149 5.83662 4.92582 5.79389 4.91722 5.74639C4.90863 5.69888 4.91771 5.64987 4.94274 5.60859C4.96778 5.56732 5.00705 5.53662 5.05315 5.52229L5.87073 5.18339C5.895 5.17179 5.92138 5.16527 5.94826 5.16421C5.97513 5.16316 6.00194 5.1676 6.02704 5.17726C6.05215 5.18692 6.07502 5.20159 6.09425 5.22039C6.11349 5.23919 6.12869 5.26171 6.13893 5.28658C6.14916 5.31146 6.15422 5.33816 6.15379 5.36505C6.15335 5.39194 6.14744 5.41846 6.13641 5.44299C6.12538 5.46752 6.10946 5.48955 6.08963 5.50772C6.06979 5.52588 6.04646 5.53982 6.02106 5.54866L5.19821 5.88888C5.17454 5.89993 5.14908 5.90663 5.12304 5.90866Z" fill="black"/>
<path d="M5.6953 6.58646C5.66619 6.58625 5.63747 6.57978 5.61107 6.56749C5.58468 6.55521 5.56124 6.53739 5.54234 6.51525L4.97135 5.83217C4.95312 5.81248 4.93909 5.78929 4.93011 5.76401C4.92113 5.73873 4.91739 5.71189 4.91911 5.68511C4.92083 5.65834 4.92798 5.6322 4.94012 5.60827C4.95227 5.58435 4.96915 5.56315 4.98974 5.54595C5.01034 5.52876 5.03422 5.51594 5.05993 5.50826C5.08563 5.50059 5.11263 5.49823 5.13928 5.50132C5.16593 5.50441 5.19168 5.51288 5.21495 5.52624C5.23822 5.53959 5.25853 5.55754 5.27464 5.57898L5.84431 6.26074C5.86869 6.28949 5.88434 6.32461 5.88943 6.36195C5.89452 6.3993 5.88883 6.43732 5.87303 6.47155C5.85724 6.50577 5.83199 6.53477 5.80027 6.55512C5.76855 6.57548 5.73168 6.58635 5.69398 6.58646H5.6953Z" fill="black"/>
<path d="M4.6445 6.65354C4.60672 6.65391 4.56963 6.64338 4.53768 6.62321C4.49337 6.59479 4.46211 6.54998 4.45074 6.49858C4.43938 6.44718 4.44883 6.39337 4.47703 6.34892L4.95571 5.59859C4.96973 5.57669 4.98794 5.55776 5.00928 5.54288C5.03062 5.52801 5.05468 5.51749 5.08009 5.51192C5.1055 5.50635 5.13176 5.50584 5.15737 5.51041C5.18297 5.51499 5.20743 5.52456 5.22933 5.53859C5.25124 5.55262 5.27017 5.57082 5.28504 5.59216C5.29991 5.61351 5.31043 5.63757 5.316 5.66298C5.32157 5.68839 5.32209 5.71464 5.31751 5.74025C5.31293 5.76586 5.30336 5.79031 5.28933 5.81222L4.81065 6.56782C4.79226 6.59479 4.76743 6.61674 4.73842 6.63171C4.70941 6.64667 4.67713 6.65417 4.6445 6.65354Z" fill="black"/>
<path d="M5.12297 5.90856C5.10563 5.90832 5.08838 5.9061 5.07154 5.90197L4.21176 5.6712C4.16105 5.65774 4.11776 5.62468 4.09143 5.5793C4.06509 5.53392 4.05786 5.47993 4.07132 5.42922C4.08479 5.37851 4.11785 5.33522 4.16323 5.30889C4.20861 5.28255 4.26259 5.27532 4.3133 5.28878L5.1744 5.51296C5.22686 5.51978 5.27446 5.54716 5.30674 5.58908C5.33901 5.63099 5.35331 5.68401 5.34649 5.73648C5.33967 5.78894 5.31229 5.83654 5.27037 5.86881C5.22845 5.90108 5.17543 5.91538 5.12297 5.90856ZM10.4333 7.89318H8.29704C7.93622 7.89283 7.59028 7.74934 7.33514 7.4942C7.08 7.23906 6.93651 6.89312 6.93616 6.5323V4.39604C6.93651 4.03521 7.08 3.68927 7.33514 3.43413C7.59028 3.179 7.93622 3.03551 8.29704 3.03516H10.4333C10.7941 3.03551 11.1401 3.179 11.3952 3.43413C11.6503 3.68927 11.7938 4.03521 11.7942 4.39604V6.5323C11.7938 6.89312 11.6503 7.23906 11.3952 7.4942C11.1401 7.74934 10.7941 7.89283 10.4333 7.89318ZM8.29704 3.43076C8.04114 3.43111 7.79582 3.53292 7.61487 3.71387C7.43392 3.89482 7.33211 4.14014 7.33176 4.39604V6.5323C7.33176 6.78831 7.43346 7.03383 7.61449 7.21485C7.79551 7.39588 8.04103 7.49757 8.29704 7.49757H10.4333C10.6893 7.49757 10.9348 7.39588 11.1159 7.21485C11.2969 7.03383 11.3986 6.78831 11.3986 6.5323V4.39604C11.3982 4.14014 11.2964 3.89482 11.1155 3.71387C10.9345 3.53292 10.6892 3.43111 10.4333 3.43076H8.29704Z" fill="black"/>
<path d="M7.83965 3.47436C7.78719 3.47436 7.73688 3.45352 7.69978 3.41642C7.66269 3.37933 7.64185 3.32902 7.64185 3.27656V1.56227C7.64185 0.756555 8.40536 0.106445 9.34426 0.106445H9.38778C10.3254 0.106445 11.0902 0.765786 11.0902 1.5715C11.0902 1.62396 11.0694 1.67427 11.0323 1.71137C10.9952 1.74846 10.9449 1.7693 10.8924 1.7693C10.8399 1.7693 10.7896 1.74846 10.7525 1.71137C10.7154 1.67427 10.6946 1.62396 10.6946 1.5715C10.6946 0.98205 10.1078 0.50205 9.38778 0.50205H9.34426C8.62294 0.50205 8.03745 0.98205 8.03745 1.5715V3.27128C8.03815 3.2977 8.03356 3.32399 8.02393 3.3486C8.01431 3.37321 7.99985 3.39564 7.98141 3.41457C7.96298 3.4335 7.94093 3.44854 7.91658 3.45881C7.89223 3.46908 7.86607 3.47437 7.83965 3.47436ZM9.36536 6.04051C9.3129 6.04051 9.26259 6.01967 9.2255 5.98258C9.1884 5.94548 9.16756 5.89517 9.16756 5.84271V5.01853C9.16756 4.96607 9.1884 4.91576 9.2255 4.87867C9.26259 4.84157 9.3129 4.82073 9.36536 4.82073C9.41782 4.82073 9.46813 4.84157 9.50523 4.87867C9.54232 4.91576 9.56316 4.96607 9.56316 5.01853V5.84271C9.56316 5.89517 9.54232 5.94548 9.50523 5.98258C9.46813 6.01967 9.41782 6.04051 9.36536 6.04051Z" fill="black"/>
</svg>
