<svg width="11" height="12" viewBox="0 0 11 12" fill="none" xmlns="http://www.w3.org/2000/svg">
<path d="M4.93011 5.78044C5.72421 5.78044 6.41187 5.4956 6.97373 4.93364C7.5356 4.3718 7.82041 3.68434 7.82041 2.89014C7.82041 2.09617 7.5356 1.40864 6.97364 0.846583C6.41168 0.284811 5.72412 0 4.93011 0C4.13588 0 3.4484 0.284811 2.88655 0.846676C2.32471 1.40854 2.03978 2.0961 2.03978 2.89014C2.03978 3.68434 2.32469 4.3719 2.88665 4.93376C3.44861 5.49553 4.13617 5.78044 4.93011 5.78044ZM9.98736 9.22738C9.97114 8.99357 9.93838 8.73847 9.89012 8.46915C9.84142 8.19777 9.77872 7.94125 9.70363 7.70678C9.6261 7.46444 9.52063 7.22514 9.39027 6.99579C9.25494 6.75776 9.09601 6.55047 8.91765 6.37992C8.73116 6.20149 8.50284 6.05803 8.23879 5.95336C7.97568 5.8493 7.68407 5.79656 7.37217 5.79656C7.24966 5.79656 7.13121 5.84681 6.90241 5.99578C6.73978 6.10168 6.57666 6.20684 6.41306 6.31125C6.25587 6.41142 6.04292 6.50526 5.77988 6.59022C5.52326 6.67326 5.26271 6.71538 5.00553 6.71538C4.74837 6.71538 4.48789 6.67326 4.23099 6.59022C3.96826 6.50533 3.75531 6.41151 3.59828 6.31134C3.41617 6.19498 3.2514 6.08878 3.10848 5.99566C2.87997 5.84672 2.7614 5.79645 2.63891 5.79645C2.32689 5.79645 2.0354 5.84927 1.77236 5.95348C1.5085 6.05794 1.28008 6.2014 1.0934 6.38001C0.915163 6.55066 0.75614 6.75783 0.621 6.99579C0.490735 7.22512 0.385266 7.46435 0.307618 7.70688C0.232618 7.94134 0.169923 8.19777 0.12122 8.46915C0.0729628 8.73812 0.0401973 8.99329 0.0239787 9.22766C0.00784484 9.46352 -0.000152065 9.69986 2.18938e-06 9.93627C2.18938e-06 10.5627 0.199126 11.0698 0.591797 11.4438C0.979616 11.8128 1.49275 12 2.11678 12H7.89485C8.51887 12 9.03182 11.8129 9.41973 11.4438C9.8125 11.0701 10.0116 10.5629 10.0116 9.93617C10.0115 9.69439 10.0034 9.45589 9.98736 9.22738Z" fill="black"/>
</svg>
